<svg xmlns="http://www.w3.org/2000/svg" version="1.1" xmlns:xlink="http://www.w3.org/1999/xlink" xmlns:svgjs="http://svgjs.dev/svgjs" width="2000" height="1500" viewBox="0 0 2000 1500"><rect width="2000" height="1500" fill="#ffffff"></rect><g transform="matrix(0.2752546105147261,0,0,0.2752546105147261,724.3876446509186,250.3058103975536)"><svg viewBox="0 0 180 327" data-background-color="#ffffff" preserveAspectRatio="xMidYMid meet" height="3633" width="2000" xmlns="http://www.w3.org/2000/svg" xmlns:xlink="http://www.w3.org/1999/xlink"><g id="tight-bounds" transform="matrix(1,0,0,1,0.1169718284891701,-0.10000000000002274)"><svg viewBox="0 0 179.76542946809454 327.2" height="327.2" width="179.76542946809454"><g><svg viewBox="0 0 362.25225379146013 659.3533461426894" height="327.2" width="179.76542946809454"><g transform="matrix(1,0,0,1,0,332.1533461426893)"><svg viewBox="0 0 362.25225379146013 327.2" height="327.2" width="362.25225379146013"><g id="textblocktransform"><svg viewBox="0 0 362.25225379146013 327.2" height="327.2" width="362.25225379146013" id="textblock"><g><svg viewBox="0 0 362.25225379146013 327.2" height="327.2" width="362.25225379146013"><g transform="matrix(1,0,0,1,0,0)"><svg width="362.25225379146013" viewBox="17.754427878732166 -2.808618698210793 25.267658737199504 22.82269247608922" height="327.2" data-palette-color="#eb2f64"><path d="M17.907 19.778c-0.107-0.004-0.157-0.07-0.152-0.196v0c0.015-0.373 0.236-0.731 0.662-1.075v0c0.311-0.275 0.547-0.519 0.71-0.733 0.162-0.22 0.307-0.518 0.435-0.894 0.135-0.382 0.281-0.953 0.438-1.714v0l2.458-12.133-0.11-0.004c-0.853-0.033-1.502 0.031-1.949 0.194-0.446 0.156-0.79 0.326-1.031 0.51-0.24 0.177-0.387 0.265-0.441 0.263v0c-0.107-0.004-0.157-0.086-0.15-0.247v0c0.007-0.167 0.039-0.302 0.096-0.406v0c0.224-0.612 0.727-1.106 1.509-1.482 0.782-0.37 1.842-0.528 3.181-0.476v0c0.626 0.025 1.404 0.099 2.334 0.222v0c1.422 0.149 2.276 0.23 2.562 0.241v0c1.033 0.041 1.799-0.019 2.299-0.18 0.5-0.161 0.783-0.239 0.85-0.237v0c0.073 0.003 0.123 0.018 0.148 0.046 0.026 0.028 0.037 0.078 0.034 0.152v0c-0.008 0.213-0.155 0.468-0.44 0.763-0.292 0.289-0.728 0.538-1.31 0.749-0.575 0.211-1.283 0.3-2.123 0.267v0c-0.326-0.013-0.636-0.035-0.928-0.067-0.293-0.025-0.555-0.052-0.787-0.08v0c-0.816-0.105-1.395-0.165-1.734-0.179v0l-1.303 6.414 5.036 0.198c0.147 0.006 0.217 0.072 0.212 0.198v0c-0.005 0.127-0.126 0.332-0.364 0.617-0.231 0.284-0.518 0.54-0.861 0.766-0.336 0.227-0.657 0.334-0.963 0.323v0c-0.087-0.003-0.308-0.045-0.666-0.126v0c-0.64-0.185-1.236-0.289-1.789-0.311v0l-0.879-0.034-1.116 5.21c-0.052 0.298-0.14 0.588-0.264 0.87-0.124 0.282-0.253 0.494-0.385 0.635v0l-0.001 0.02c0.369 0.121 0.822 0.226 1.359 0.314 0.531 0.081 1.029 0.13 1.495 0.149v0c1.585 0.062 3.01-0.275 4.273-1.013v0c0.054-0.011 0.111-0.036 0.173-0.073 0.068-0.031 0.129-0.045 0.182-0.043v0c0.127 0.005 0.186 0.097 0.179 0.277v0c-0.015 0.373-0.274 0.763-0.777 1.17-0.497 0.414-1.127 0.753-1.891 1.017-0.758 0.264-1.529 0.38-2.315 0.349v0c-0.54-0.021-1.359-0.143-2.458-0.367v0c-0.814-0.159-1.381-0.244-1.701-0.256v0c-0.38-0.015-0.739 0.048-1.078 0.187-0.346 0.14-0.565 0.208-0.659 0.205zM39.271 17.088c-1.408 0.655-2.733 0.646-3.972-0.028-1.242-0.68-2.337-2.038-3.285-4.075v0c-1.071-2.303-1.55-4.51-1.436-6.622 0.114-2.111 0.638-3.925 1.573-5.44 0.938-1.524 2.057-2.589 3.356-3.193v0c0.84-0.391 1.658-0.569 2.454-0.534 0.795 0.035 1.348 0.384 1.657 1.049v0c0.219 0.472 0.272 1.076 0.158 1.812v0c-0.035 0.178-0.073 0.31-0.114 0.395-0.032 0.089-0.097 0.155-0.193 0.2v0c-0.115 0.053-0.222 0.037-0.321-0.049-0.096-0.08-0.187-0.189-0.273-0.326-0.086-0.137-0.15-0.235-0.193-0.296v0c-0.353-0.505-0.812-0.821-1.377-0.947-0.557-0.123-1.208-0.012-1.952 0.334v0c-1.318 0.613-2.186 1.623-2.605 3.03-0.419 1.408-0.504 2.94-0.255 4.597 0.248 1.656 0.693 3.174 1.334 4.552v0c0.731 1.572 1.589 2.65 2.574 3.236 0.979 0.589 2.004 0.634 3.074 0.137v0c0.877-0.408 1.567-1.074 2.07-2 0.512-0.922 0.779-2.031 0.802-3.328v0c0.015-0.22 0.071-0.353 0.168-0.398v0c0.085-0.039 0.168 0.029 0.249 0.204v0c0.045 0.097 0.082 0.201 0.112 0.312 0.027 0.105 0.045 0.185 0.056 0.239v0c0.157 0.971 0.109 1.927-0.144 2.868-0.251 0.947-0.683 1.796-1.298 2.544-0.621 0.752-1.36 1.327-2.219 1.727z" opacity="1" transform="matrix(1,0,0,1,0,0)" fill="#eb2f64" class="wordmark-text-0" data-fill-palette-color="primary" id="text-0"></path></svg></g></svg></g></svg></g></svg></g><g transform="matrix(1,0,0,1,96.64865641577724,0)"><svg viewBox="0 0 168.95494095990566 291.20799999999997" height="291.20799999999997" width="168.95494095990566"><g><svg xmlns="http://www.w3.org/2000/svg" xmlns:xlink="http://www.w3.org/1999/xlink" version="1.1" x="0" y="0" viewBox="21.679106830508623 1 56.85827385947761 98" enable-background="new 0 0 100 100" xml:space="preserve" height="291.20799999999997" width="168.95494095990566" class="icon-icon-0" data-fill-palette-color="accent" id="icon-0"><g fill="#eb2f64" data-fill-palette-color="accent"><path fill-rule="evenodd" clip-rule="evenodd" d="M30.545 28.822c-1.165 7.217 0.33 14.85 6.5 19.041C30.758 19.81 45.756 8.664 59.646 1c-16.18 23.046 16.896 23.644 18.777 50.13C80.028 73.71 64.507 91.317 46.639 99c0.206-22.825-22.55-25.933-24.838-44.603C20.905 47.094 25.062 33.766 30.545 28.822z" fill="#eb2f64" data-fill-palette-color="accent"></path></g></svg></g></svg></g><g></g></svg></g><defs></defs></svg><rect width="179.76542946809454" height="327.2" fill="none" stroke="none" visibility="hidden"></rect></g></svg></g></svg>